<svg xmlns="http://www.w3.org/2000/svg" version="1.1" xmlns:xlink="http://www.w3.org/1999/xlink" xmlns:svgjs="http://svgjs.com/svgjs" width="1440" height="560" preserveAspectRatio="none" viewBox="0 0 1440 560"><g mask="url(&quot;#SvgjsMask1003&quot;)" fill="none"><rect width="1440" height="560" x="0" y="0" fill="rgba(242, 248, 255, 1)"></rect><path d="M27.48 -8.04L57.79 9.46L57.79 44.46L27.48 61.96L-2.83 44.46L-2.83 9.46zM27.48 306.96L57.79 324.46L57.79 359.46L27.48 376.96L-2.83 359.46L-2.83 324.46zM57.79 359.46L88.1 376.96L88.1 411.96L57.79 429.46L27.48 411.96L27.48 376.96zM88.1 -8.04L118.42 9.46L118.42 44.46L88.1 61.96L57.79 44.46L57.79 9.46zM88.1 306.96L118.42 324.46L118.42 359.46L88.1 376.96L57.79 359.46L57.79 324.46zM118.42 359.46L148.73 376.96L148.73 411.96L118.42 429.46L88.1 411.96L88.1 376.96zM88.1 411.96L118.42 429.46L118.42 464.46L88.1 481.96L57.79 464.46L57.79 429.46zM179.04 149.46L209.35 166.96L209.35 201.96L179.04 219.46L148.73 201.96L148.73 166.96zM179.04 254.46L209.35 271.96L209.35 306.96L179.04 324.46L148.73 306.96L148.73 271.96zM148.73 411.96L179.04 429.46L179.04 464.46L148.73 481.96L118.42 464.46L118.42 429.46zM179.04 569.46L209.35 586.96L209.35 621.96L179.04 639.46L148.73 621.96L148.73 586.96zM239.66 254.46L269.97 271.96L269.97 306.96L239.66 324.46L209.35 306.96L209.35 271.96zM239.66 464.46L269.97 481.96L269.97 516.96L239.66 534.46L209.35 516.96L209.35 481.96zM300.29 149.46L330.6 166.96L330.6 201.96L300.29 219.46L269.97 201.96L269.97 166.96zM300.29 359.46L330.6 376.96L330.6 411.96L300.29 429.46L269.97 411.96L269.97 376.96zM269.97 411.96L300.29 429.46L300.29 464.46L269.97 481.96L239.66 464.46L239.66 429.46zM330.6 306.96L360.91 324.46L360.91 359.46L330.6 376.96L300.29 359.46L300.29 324.46zM360.91 569.46L391.22 586.96L391.22 621.96L360.91 639.46L330.6 621.96L330.6 586.96zM421.53 149.46L451.84 166.96L451.84 201.96L421.53 219.46L391.22 201.96L391.22 166.96zM421.53 254.46L451.84 271.96L451.84 306.96L421.53 324.46L391.22 306.96L391.22 271.96zM482.16 44.46L512.47 61.96L512.47 96.96L482.16 114.46L451.84 96.96L451.84 61.96zM451.84 201.96L482.16 219.46L482.16 254.46L451.84 271.96L421.53 254.46L421.53 219.46zM451.84 306.96L482.16 324.46L482.16 359.46L451.84 376.96L421.53 359.46L421.53 324.46zM482.16 464.46L512.47 481.96L512.47 516.96L482.16 534.46L451.84 516.96L451.84 481.96zM451.84 516.96L482.16 534.46L482.16 569.46L451.84 586.96L421.53 569.46L421.53 534.46zM512.47 96.96L542.78 114.46L542.78 149.46L512.47 166.96L482.16 149.46L482.16 114.46zM542.78 359.46L573.09 376.96L573.09 411.96L542.78 429.46L512.47 411.96L512.47 376.96zM603.4 149.46L633.71 166.96L633.71 201.96L603.4 219.46L573.09 201.96L573.09 166.96zM573.09 201.96L603.4 219.46L603.4 254.46L573.09 271.96L542.78 254.46L542.78 219.46zM573.09 306.96L603.4 324.46L603.4 359.46L573.09 376.96L542.78 359.46L542.78 324.46zM603.4 359.46L633.71 376.96L633.71 411.96L603.4 429.46L573.09 411.96L573.09 376.96zM603.4 569.46L633.71 586.96L633.71 621.96L603.4 639.46L573.09 621.96L573.09 586.96zM664.03 359.46L694.34 376.96L694.34 411.96L664.03 429.46L633.72 411.96L633.72 376.96zM633.72 411.96L664.03 429.46L664.03 464.46L633.72 481.96L603.4 464.46L603.4 429.46zM633.72 516.96L664.03 534.46L664.03 569.46L633.72 586.96L603.4 569.46L603.4 534.46zM724.65 254.46L754.96 271.96L754.96 306.96L724.65 324.46L694.34 306.96L694.34 271.96zM754.96 -8.04L785.27 9.46L785.27 44.46L754.96 61.96L724.65 44.46L724.65 9.46zM785.27 44.46L815.59 61.96L815.59 96.96L785.27 114.46L754.96 96.96L754.96 61.96zM754.96 306.96L785.27 324.46L785.27 359.46L754.96 376.96L724.65 359.46L724.65 324.46zM754.96 411.96L785.27 429.46L785.27 464.46L754.96 481.96L724.65 464.46L724.65 429.46zM754.96 516.96L785.27 534.46L785.27 569.46L754.96 586.96L724.65 569.46L724.65 534.46zM815.59 96.96L845.9 114.46L845.9 149.46L815.59 166.96L785.27 149.46L785.27 114.46zM815.59 306.96L845.9 324.46L845.9 359.46L815.59 376.96L785.27 359.46L785.27 324.46zM815.59 411.96L845.9 429.46L845.9 464.46L815.59 481.96L785.27 464.46L785.27 429.46zM815.59 516.96L845.9 534.46L845.9 569.46L815.59 586.96L785.27 569.46L785.27 534.46zM876.21 96.96L906.52 114.46L906.52 149.46L876.21 166.96L845.9 149.46L845.9 114.46zM876.21 516.96L906.52 534.46L906.52 569.46L876.21 586.96L845.9 569.46L845.9 534.46zM967.14 149.46L997.46 166.96L997.46 201.96L967.14 219.46L936.83 201.96L936.83 166.96zM936.83 201.96L967.14 219.46L967.14 254.46L936.83 271.96L906.52 254.46L906.52 219.46zM967.14 359.46L997.46 376.96L997.46 411.96L967.14 429.46L936.83 411.96L936.83 376.96zM967.14 464.46L997.46 481.96L997.46 516.96L967.14 534.46L936.83 516.96L936.83 481.96zM997.46 -8.04L1027.77 9.46L1027.77 44.46L997.46 61.96L967.14 44.46L967.14 9.46zM997.46 96.96L1027.77 114.46L1027.77 149.46L997.46 166.96L967.14 149.46L967.14 114.46zM1027.77 254.46L1058.08 271.96L1058.08 306.96L1027.77 324.46L997.46 306.96L997.46 271.96zM997.46 306.96L1027.77 324.46L1027.77 359.46L997.46 376.96L967.14 359.46L967.14 324.46zM1027.77 464.46L1058.08 481.96L1058.08 516.96L1027.77 534.46L997.46 516.96L997.46 481.96zM1088.39 44.46L1118.7 61.96L1118.7 96.96L1088.39 114.46L1058.08 96.96L1058.08 61.96zM1058.08 201.96L1088.39 219.46L1088.39 254.46L1058.08 271.96L1027.77 254.46L1027.77 219.46zM1088.39 254.46L1118.7 271.96L1118.7 306.96L1088.39 324.46L1058.08 306.96L1058.08 271.96zM1058.08 306.96L1088.39 324.46L1088.39 359.46L1058.08 376.96L1027.77 359.46L1027.77 324.46zM1118.7 -8.04L1149.01 9.46L1149.01 44.46L1118.7 61.96L1088.39 44.46L1088.39 9.46zM1118.7 96.96L1149.01 114.46L1149.01 149.46L1118.7 166.96L1088.39 149.46L1088.39 114.46zM1149.01 359.46L1179.33 376.96L1179.33 411.96L1149.01 429.46L1118.7 411.96L1118.7 376.96zM1149.01 464.46L1179.33 481.96L1179.33 516.96L1149.01 534.46L1118.7 516.96L1118.7 481.96zM1209.64 149.46L1239.95 166.96L1239.95 201.96L1209.64 219.46L1179.33 201.96L1179.33 166.96zM1179.33 201.96L1209.64 219.46L1209.64 254.46L1179.33 271.96L1149.01 254.46L1149.01 219.46zM1179.33 306.96L1209.64 324.46L1209.64 359.46L1179.33 376.96L1149.01 359.46L1149.01 324.46zM1239.95 -8.04L1270.26 9.46L1270.26 44.46L1239.95 61.96L1209.64 44.46L1209.64 9.46zM1270.26 44.46L1300.57 61.96L1300.57 96.96L1270.26 114.46L1239.95 96.96L1239.95 61.96zM1239.95 201.96L1270.26 219.46L1270.26 254.46L1239.95 271.96L1209.64 254.46L1209.64 219.46zM1239.95 306.96L1270.26 324.46L1270.26 359.46L1239.95 376.96L1209.64 359.46L1209.64 324.46zM1330.89 254.46L1361.2 271.96L1361.2 306.96L1330.89 324.46L1300.57 306.96L1300.57 271.96zM1300.57 306.96L1330.89 324.46L1330.89 359.46L1300.57 376.96L1270.26 359.46L1270.26 324.46zM1300.57 411.96L1330.89 429.46L1330.89 464.46L1300.57 481.96L1270.26 464.46L1270.26 429.46zM1391.51 149.46L1421.82 166.96L1421.82 201.96L1391.51 219.46L1361.2 201.96L1361.2 166.96zM1361.2 201.96L1391.51 219.46L1391.51 254.46L1361.2 271.96L1330.89 254.46L1330.89 219.46zM1391.51 359.46L1421.82 376.96L1421.82 411.96L1391.51 429.46L1361.2 411.96L1361.2 376.96zM1361.2 516.96L1391.51 534.46L1391.51 569.46L1361.2 586.96L1330.89 569.46L1330.89 534.46zM1391.51 569.46L1421.82 586.96L1421.82 621.96L1391.51 639.46L1361.2 621.96L1361.2 586.96zM1421.82 -8.04L1452.13 9.46L1452.13 44.46L1421.82 61.96L1391.51 44.46L1391.51 9.46zM1452.13 254.46L1482.44 271.96L1482.44 306.96L1452.13 324.46L1421.82 306.96L1421.82 271.96zM1452.13 464.46L1482.44 481.96L1482.44 516.96L1452.13 534.46L1421.82 516.96L1421.82 481.96z" stroke="rgba(143, 184, 225, 0.17)" stroke-width="2"></path><path d="M23.98 -8.04 a3.5 3.5 0 1 0 7 0 a3.5 3.5 0 1 0 -7 0zM54.29 9.46 a3.5 3.5 0 1 0 7 0 a3.5 3.5 0 1 0 -7 0zM54.29 44.46 a3.5 3.5 0 1 0 7 0 a3.5 3.5 0 1 0 -7 0zM23.98 61.96 a3.5 3.5 0 1 0 7 0 a3.5 3.5 0 1 0 -7 0zM-6.33 44.46 a3.5 3.5 0 1 0 7 0 a3.5 3.5 0 1 0 -7 0zM-6.33 9.46 a3.5 3.5 0 1 0 7 0 a3.5 3.5 0 1 0 -7 0zM23.98 306.96 a3.5 3.5 0 1 0 7 0 a3.5 3.5 0 1 0 -7 0zM54.29 324.46 a3.5 3.5 0 1 0 7 0 a3.5 3.5 0 1 0 -7 0zM54.29 359.46 a3.5 3.5 0 1 0 7 0 a3.5 3.5 0 1 0 -7 0zM23.98 376.96 a3.5 3.5 0 1 0 7 0 a3.5 3.5 0 1 0 -7 0zM-6.33 359.46 a3.5 3.5 0 1 0 7 0 a3.5 3.5 0 1 0 -7 0zM-6.33 324.46 a3.5 3.5 0 1 0 7 0 a3.5 3.5 0 1 0 -7 0zM84.6 376.96 a3.5 3.5 0 1 0 7 0 a3.5 3.5 0 1 0 -7 0zM84.6 411.96 a3.5 3.5 0 1 0 7 0 a3.5 3.5 0 1 0 -7 0zM54.29 429.46 a3.5 3.5 0 1 0 7 0 a3.5 3.5 0 1 0 -7 0zM23.98 411.96 a3.5 3.5 0 1 0 7 0 a3.5 3.5 0 1 0 -7 0zM84.6 -8.04 a3.5 3.5 0 1 0 7 0 a3.5 3.5 0 1 0 -7 0zM114.92 9.46 a3.5 3.5 0 1 0 7 0 a3.5 3.5 0 1 0 -7 0zM114.92 44.46 a3.5 3.5 0 1 0 7 0 a3.5 3.5 0 1 0 -7 0zM84.6 61.96 a3.5 3.5 0 1 0 7 0 a3.5 3.5 0 1 0 -7 0zM84.6 306.96 a3.5 3.5 0 1 0 7 0 a3.5 3.5 0 1 0 -7 0zM114.92 324.46 a3.5 3.5 0 1 0 7 0 a3.5 3.5 0 1 0 -7 0zM114.92 359.46 a3.5 3.5 0 1 0 7 0 a3.5 3.5 0 1 0 -7 0zM145.23 376.96 a3.5 3.5 0 1 0 7 0 a3.5 3.5 0 1 0 -7 0zM145.23 411.96 a3.5 3.5 0 1 0 7 0 a3.5 3.5 0 1 0 -7 0zM114.92 429.46 a3.5 3.5 0 1 0 7 0 a3.5 3.5 0 1 0 -7 0zM114.92 464.46 a3.5 3.5 0 1 0 7 0 a3.5 3.5 0 1 0 -7 0zM84.6 481.96 a3.5 3.5 0 1 0 7 0 a3.5 3.5 0 1 0 -7 0zM54.29 464.46 a3.5 3.5 0 1 0 7 0 a3.5 3.5 0 1 0 -7 0zM175.54 149.46 a3.5 3.5 0 1 0 7 0 a3.5 3.5 0 1 0 -7 0zM205.85 166.96 a3.5 3.5 0 1 0 7 0 a3.5 3.5 0 1 0 -7 0zM205.85 201.96 a3.5 3.5 0 1 0 7 0 a3.5 3.5 0 1 0 -7 0zM175.54 219.46 a3.5 3.5 0 1 0 7 0 a3.5 3.5 0 1 0 -7 0zM145.23 201.96 a3.5 3.5 0 1 0 7 0 a3.5 3.5 0 1 0 -7 0zM145.23 166.96 a3.5 3.5 0 1 0 7 0 a3.5 3.5 0 1 0 -7 0zM175.54 254.46 a3.5 3.5 0 1 0 7 0 a3.5 3.5 0 1 0 -7 0zM205.85 271.96 a3.5 3.5 0 1 0 7 0 a3.5 3.5 0 1 0 -7 0zM205.85 306.96 a3.5 3.5 0 1 0 7 0 a3.5 3.5 0 1 0 -7 0zM175.54 324.46 a3.5 3.5 0 1 0 7 0 a3.5 3.5 0 1 0 -7 0zM145.23 306.96 a3.5 3.5 0 1 0 7 0 a3.5 3.5 0 1 0 -7 0zM145.23 271.96 a3.5 3.5 0 1 0 7 0 a3.5 3.5 0 1 0 -7 0zM175.54 429.46 a3.5 3.5 0 1 0 7 0 a3.5 3.5 0 1 0 -7 0zM175.54 464.46 a3.5 3.5 0 1 0 7 0 a3.5 3.5 0 1 0 -7 0zM145.23 481.96 a3.5 3.5 0 1 0 7 0 a3.5 3.5 0 1 0 -7 0zM175.54 569.46 a3.5 3.5 0 1 0 7 0 a3.5 3.5 0 1 0 -7 0zM205.85 586.96 a3.5 3.5 0 1 0 7 0 a3.5 3.5 0 1 0 -7 0zM205.85 621.96 a3.5 3.5 0 1 0 7 0 a3.5 3.5 0 1 0 -7 0zM175.54 639.46 a3.5 3.5 0 1 0 7 0 a3.5 3.5 0 1 0 -7 0zM145.23 621.96 a3.5 3.5 0 1 0 7 0 a3.5 3.5 0 1 0 -7 0zM145.23 586.96 a3.5 3.5 0 1 0 7 0 a3.5 3.5 0 1 0 -7 0zM236.16 254.46 a3.5 3.5 0 1 0 7 0 a3.5 3.5 0 1 0 -7 0zM266.47 271.96 a3.5 3.5 0 1 0 7 0 a3.5 3.5 0 1 0 -7 0zM266.47 306.96 a3.5 3.5 0 1 0 7 0 a3.5 3.5 0 1 0 -7 0zM236.16 324.46 a3.5 3.5 0 1 0 7 0 a3.5 3.5 0 1 0 -7 0zM236.16 464.46 a3.5 3.5 0 1 0 7 0 a3.5 3.5 0 1 0 -7 0zM266.47 481.96 a3.5 3.5 0 1 0 7 0 a3.5 3.5 0 1 0 -7 0zM266.47 516.96 a3.5 3.5 0 1 0 7 0 a3.5 3.5 0 1 0 -7 0zM236.16 534.46 a3.5 3.5 0 1 0 7 0 a3.5 3.5 0 1 0 -7 0zM205.85 516.96 a3.5 3.5 0 1 0 7 0 a3.5 3.5 0 1 0 -7 0zM205.85 481.96 a3.5 3.5 0 1 0 7 0 a3.5 3.5 0 1 0 -7 0zM296.79 149.46 a3.5 3.5 0 1 0 7 0 a3.5 3.5 0 1 0 -7 0zM327.1 166.96 a3.5 3.5 0 1 0 7 0 a3.5 3.5 0 1 0 -7 0zM327.1 201.96 a3.5 3.5 0 1 0 7 0 a3.5 3.5 0 1 0 -7 0zM296.79 219.46 a3.5 3.5 0 1 0 7 0 a3.5 3.5 0 1 0 -7 0zM266.47 201.96 a3.5 3.5 0 1 0 7 0 a3.5 3.5 0 1 0 -7 0zM266.47 166.96 a3.5 3.5 0 1 0 7 0 a3.5 3.5 0 1 0 -7 0zM296.79 359.46 a3.5 3.5 0 1 0 7 0 a3.5 3.5 0 1 0 -7 0zM327.1 376.96 a3.5 3.5 0 1 0 7 0 a3.5 3.5 0 1 0 -7 0zM327.1 411.96 a3.5 3.5 0 1 0 7 0 a3.5 3.5 0 1 0 -7 0zM296.79 429.46 a3.5 3.5 0 1 0 7 0 a3.5 3.5 0 1 0 -7 0zM266.47 411.96 a3.5 3.5 0 1 0 7 0 a3.5 3.5 0 1 0 -7 0zM266.47 376.96 a3.5 3.5 0 1 0 7 0 a3.5 3.5 0 1 0 -7 0zM296.79 464.46 a3.5 3.5 0 1 0 7 0 a3.5 3.5 0 1 0 -7 0zM236.16 429.46 a3.5 3.5 0 1 0 7 0 a3.5 3.5 0 1 0 -7 0zM327.1 306.96 a3.5 3.5 0 1 0 7 0 a3.5 3.5 0 1 0 -7 0zM357.41 324.46 a3.5 3.5 0 1 0 7 0 a3.5 3.5 0 1 0 -7 0zM357.41 359.46 a3.5 3.5 0 1 0 7 0 a3.5 3.5 0 1 0 -7 0zM296.79 324.46 a3.5 3.5 0 1 0 7 0 a3.5 3.5 0 1 0 -7 0zM357.41 569.46 a3.5 3.5 0 1 0 7 0 a3.5 3.5 0 1 0 -7 0zM387.72 586.96 a3.5 3.5 0 1 0 7 0 a3.5 3.5 0 1 0 -7 0zM387.72 621.96 a3.5 3.5 0 1 0 7 0 a3.5 3.5 0 1 0 -7 0zM357.41 639.46 a3.5 3.5 0 1 0 7 0 a3.5 3.5 0 1 0 -7 0zM327.1 621.96 a3.5 3.5 0 1 0 7 0 a3.5 3.5 0 1 0 -7 0zM327.1 586.96 a3.5 3.5 0 1 0 7 0 a3.5 3.5 0 1 0 -7 0zM418.03 149.46 a3.5 3.5 0 1 0 7 0 a3.5 3.5 0 1 0 -7 0zM448.34 166.96 a3.5 3.5 0 1 0 7 0 a3.5 3.5 0 1 0 -7 0zM448.34 201.96 a3.5 3.5 0 1 0 7 0 a3.5 3.5 0 1 0 -7 0zM418.03 219.46 a3.5 3.5 0 1 0 7 0 a3.5 3.5 0 1 0 -7 0zM387.72 201.96 a3.5 3.5 0 1 0 7 0 a3.5 3.5 0 1 0 -7 0zM387.72 166.96 a3.5 3.5 0 1 0 7 0 a3.5 3.5 0 1 0 -7 0zM418.03 254.46 a3.5 3.5 0 1 0 7 0 a3.5 3.5 0 1 0 -7 0zM448.34 271.96 a3.5 3.5 0 1 0 7 0 a3.5 3.5 0 1 0 -7 0zM448.34 306.96 a3.5 3.5 0 1 0 7 0 a3.5 3.5 0 1 0 -7 0zM418.03 324.46 a3.5 3.5 0 1 0 7 0 a3.5 3.5 0 1 0 -7 0zM387.72 306.96 a3.5 3.5 0 1 0 7 0 a3.5 3.5 0 1 0 -7 0zM387.72 271.96 a3.5 3.5 0 1 0 7 0 a3.5 3.5 0 1 0 -7 0zM478.66 44.46 a3.5 3.5 0 1 0 7 0 a3.5 3.5 0 1 0 -7 0zM508.97 61.96 a3.5 3.5 0 1 0 7 0 a3.5 3.5 0 1 0 -7 0zM508.97 96.96 a3.5 3.5 0 1 0 7 0 a3.5 3.5 0 1 0 -7 0zM478.66 114.46 a3.5 3.5 0 1 0 7 0 a3.5 3.5 0 1 0 -7 0zM448.34 96.96 a3.5 3.5 0 1 0 7 0 a3.5 3.5 0 1 0 -7 0zM448.34 61.96 a3.5 3.5 0 1 0 7 0 a3.5 3.5 0 1 0 -7 0zM478.66 219.46 a3.5 3.5 0 1 0 7 0 a3.5 3.5 0 1 0 -7 0zM478.66 254.46 a3.5 3.5 0 1 0 7 0 a3.5 3.5 0 1 0 -7 0zM478.66 324.46 a3.5 3.5 0 1 0 7 0 a3.5 3.5 0 1 0 -7 0zM478.66 359.46 a3.5 3.5 0 1 0 7 0 a3.5 3.5 0 1 0 -7 0zM448.34 376.96 a3.5 3.5 0 1 0 7 0 a3.5 3.5 0 1 0 -7 0zM418.03 359.46 a3.5 3.5 0 1 0 7 0 a3.5 3.5 0 1 0 -7 0zM478.66 464.46 a3.5 3.5 0 1 0 7 0 a3.5 3.5 0 1 0 -7 0zM508.97 481.96 a3.5 3.5 0 1 0 7 0 a3.5 3.5 0 1 0 -7 0zM508.97 516.96 a3.5 3.5 0 1 0 7 0 a3.5 3.5 0 1 0 -7 0zM478.66 534.46 a3.5 3.5 0 1 0 7 0 a3.5 3.5 0 1 0 -7 0zM448.34 516.96 a3.5 3.5 0 1 0 7 0 a3.5 3.5 0 1 0 -7 0zM448.34 481.96 a3.5 3.5 0 1 0 7 0 a3.5 3.5 0 1 0 -7 0zM478.66 569.46 a3.5 3.5 0 1 0 7 0 a3.5 3.5 0 1 0 -7 0zM448.34 586.96 a3.5 3.5 0 1 0 7 0 a3.5 3.5 0 1 0 -7 0zM418.03 569.46 a3.5 3.5 0 1 0 7 0 a3.5 3.5 0 1 0 -7 0zM418.03 534.46 a3.5 3.5 0 1 0 7 0 a3.5 3.5 0 1 0 -7 0zM539.28 114.46 a3.5 3.5 0 1 0 7 0 a3.5 3.5 0 1 0 -7 0zM539.28 149.46 a3.5 3.5 0 1 0 7 0 a3.5 3.5 0 1 0 -7 0zM508.97 166.96 a3.5 3.5 0 1 0 7 0 a3.5 3.5 0 1 0 -7 0zM478.66 149.46 a3.5 3.5 0 1 0 7 0 a3.5 3.5 0 1 0 -7 0zM539.28 359.46 a3.5 3.5 0 1 0 7 0 a3.5 3.5 0 1 0 -7 0zM569.59 376.96 a3.5 3.5 0 1 0 7 0 a3.5 3.5 0 1 0 -7 0zM569.59 411.96 a3.5 3.5 0 1 0 7 0 a3.5 3.5 0 1 0 -7 0zM539.28 429.46 a3.5 3.5 0 1 0 7 0 a3.5 3.5 0 1 0 -7 0zM508.97 411.96 a3.5 3.5 0 1 0 7 0 a3.5 3.5 0 1 0 -7 0zM508.97 376.96 a3.5 3.5 0 1 0 7 0 a3.5 3.5 0 1 0 -7 0zM599.9 149.46 a3.5 3.5 0 1 0 7 0 a3.5 3.5 0 1 0 -7 0zM630.21 166.96 a3.5 3.5 0 1 0 7 0 a3.5 3.5 0 1 0 -7 0zM630.21 201.96 a3.5 3.5 0 1 0 7 0 a3.5 3.5 0 1 0 -7 0zM599.9 219.46 a3.5 3.5 0 1 0 7 0 a3.5 3.5 0 1 0 -7 0zM569.59 201.96 a3.5 3.5 0 1 0 7 0 a3.5 3.5 0 1 0 -7 0zM569.59 166.96 a3.5 3.5 0 1 0 7 0 a3.5 3.5 0 1 0 -7 0zM599.9 254.46 a3.5 3.5 0 1 0 7 0 a3.5 3.5 0 1 0 -7 0zM569.59 271.96 a3.5 3.5 0 1 0 7 0 a3.5 3.5 0 1 0 -7 0zM539.28 254.46 a3.5 3.5 0 1 0 7 0 a3.5 3.5 0 1 0 -7 0zM539.28 219.46 a3.5 3.5 0 1 0 7 0 a3.5 3.5 0 1 0 -7 0zM569.59 306.96 a3.5 3.5 0 1 0 7 0 a3.5 3.5 0 1 0 -7 0zM599.9 324.46 a3.5 3.5 0 1 0 7 0 a3.5 3.5 0 1 0 -7 0zM599.9 359.46 a3.5 3.5 0 1 0 7 0 a3.5 3.5 0 1 0 -7 0zM539.28 324.46 a3.5 3.5 0 1 0 7 0 a3.5 3.5 0 1 0 -7 0zM630.21 376.96 a3.5 3.5 0 1 0 7 0 a3.5 3.5 0 1 0 -7 0zM630.21 411.96 a3.5 3.5 0 1 0 7 0 a3.5 3.5 0 1 0 -7 0zM599.9 429.46 a3.5 3.5 0 1 0 7 0 a3.5 3.5 0 1 0 -7 0zM599.9 569.46 a3.5 3.5 0 1 0 7 0 a3.5 3.5 0 1 0 -7 0zM630.21 586.96 a3.5 3.5 0 1 0 7 0 a3.5 3.5 0 1 0 -7 0zM630.21 621.96 a3.5 3.5 0 1 0 7 0 a3.5 3.5 0 1 0 -7 0zM599.9 639.46 a3.5 3.5 0 1 0 7 0 a3.5 3.5 0 1 0 -7 0zM569.59 621.96 a3.5 3.5 0 1 0 7 0 a3.5 3.5 0 1 0 -7 0zM569.59 586.96 a3.5 3.5 0 1 0 7 0 a3.5 3.5 0 1 0 -7 0zM660.53 359.46 a3.5 3.5 0 1 0 7 0 a3.5 3.5 0 1 0 -7 0zM690.84 376.96 a3.5 3.5 0 1 0 7 0 a3.5 3.5 0 1 0 -7 0zM690.84 411.96 a3.5 3.5 0 1 0 7 0 a3.5 3.5 0 1 0 -7 0zM660.53 429.46 a3.5 3.5 0 1 0 7 0 a3.5 3.5 0 1 0 -7 0zM630.22 411.96 a3.5 3.5 0 1 0 7 0 a3.5 3.5 0 1 0 -7 0zM630.22 376.96 a3.5 3.5 0 1 0 7 0 a3.5 3.5 0 1 0 -7 0zM660.53 464.46 a3.5 3.5 0 1 0 7 0 a3.5 3.5 0 1 0 -7 0zM630.22 481.96 a3.5 3.5 0 1 0 7 0 a3.5 3.5 0 1 0 -7 0zM599.9 464.46 a3.5 3.5 0 1 0 7 0 a3.5 3.5 0 1 0 -7 0zM630.22 516.96 a3.5 3.5 0 1 0 7 0 a3.5 3.5 0 1 0 -7 0zM660.53 534.46 a3.5 3.5 0 1 0 7 0 a3.5 3.5 0 1 0 -7 0zM660.53 569.46 a3.5 3.5 0 1 0 7 0 a3.5 3.5 0 1 0 -7 0zM630.22 586.96 a3.5 3.5 0 1 0 7 0 a3.5 3.5 0 1 0 -7 0zM599.9 534.46 a3.5 3.5 0 1 0 7 0 a3.5 3.5 0 1 0 -7 0zM721.15 254.46 a3.5 3.5 0 1 0 7 0 a3.5 3.5 0 1 0 -7 0zM751.46 271.96 a3.5 3.5 0 1 0 7 0 a3.5 3.5 0 1 0 -7 0zM751.46 306.96 a3.5 3.5 0 1 0 7 0 a3.5 3.5 0 1 0 -7 0zM721.15 324.46 a3.5 3.5 0 1 0 7 0 a3.5 3.5 0 1 0 -7 0zM690.84 306.96 a3.5 3.5 0 1 0 7 0 a3.5 3.5 0 1 0 -7 0zM690.84 271.96 a3.5 3.5 0 1 0 7 0 a3.5 3.5 0 1 0 -7 0zM751.46 -8.04 a3.5 3.5 0 1 0 7 0 a3.5 3.5 0 1 0 -7 0zM781.77 9.46 a3.5 3.5 0 1 0 7 0 a3.5 3.5 0 1 0 -7 0zM781.77 44.46 a3.5 3.5 0 1 0 7 0 a3.5 3.5 0 1 0 -7 0zM751.46 61.96 a3.5 3.5 0 1 0 7 0 a3.5 3.5 0 1 0 -7 0zM721.15 44.46 a3.5 3.5 0 1 0 7 0 a3.5 3.5 0 1 0 -7 0zM721.15 9.46 a3.5 3.5 0 1 0 7 0 a3.5 3.5 0 1 0 -7 0zM812.09 61.96 a3.5 3.5 0 1 0 7 0 a3.5 3.5 0 1 0 -7 0zM812.09 96.96 a3.5 3.5 0 1 0 7 0 a3.5 3.5 0 1 0 -7 0zM781.77 114.46 a3.5 3.5 0 1 0 7 0 a3.5 3.5 0 1 0 -7 0zM751.46 96.96 a3.5 3.5 0 1 0 7 0 a3.5 3.5 0 1 0 -7 0zM781.77 324.46 a3.5 3.5 0 1 0 7 0 a3.5 3.5 0 1 0 -7 0zM781.77 359.46 a3.5 3.5 0 1 0 7 0 a3.5 3.5 0 1 0 -7 0zM751.46 376.96 a3.5 3.5 0 1 0 7 0 a3.5 3.5 0 1 0 -7 0zM721.15 359.46 a3.5 3.5 0 1 0 7 0 a3.5 3.5 0 1 0 -7 0zM751.46 411.96 a3.5 3.5 0 1 0 7 0 a3.5 3.5 0 1 0 -7 0zM781.77 429.46 a3.5 3.5 0 1 0 7 0 a3.5 3.5 0 1 0 -7 0zM781.77 464.46 a3.5 3.5 0 1 0 7 0 a3.5 3.5 0 1 0 -7 0zM751.46 481.96 a3.5 3.5 0 1 0 7 0 a3.5 3.5 0 1 0 -7 0zM721.15 464.46 a3.5 3.5 0 1 0 7 0 a3.5 3.5 0 1 0 -7 0zM721.15 429.46 a3.5 3.5 0 1 0 7 0 a3.5 3.5 0 1 0 -7 0zM751.46 516.96 a3.5 3.5 0 1 0 7 0 a3.5 3.5 0 1 0 -7 0zM781.77 534.46 a3.5 3.5 0 1 0 7 0 a3.5 3.5 0 1 0 -7 0zM781.77 569.46 a3.5 3.5 0 1 0 7 0 a3.5 3.5 0 1 0 -7 0zM751.46 586.96 a3.5 3.5 0 1 0 7 0 a3.5 3.5 0 1 0 -7 0zM721.15 569.46 a3.5 3.5 0 1 0 7 0 a3.5 3.5 0 1 0 -7 0zM721.15 534.46 a3.5 3.5 0 1 0 7 0 a3.5 3.5 0 1 0 -7 0zM842.4 114.46 a3.5 3.5 0 1 0 7 0 a3.5 3.5 0 1 0 -7 0zM842.4 149.46 a3.5 3.5 0 1 0 7 0 a3.5 3.5 0 1 0 -7 0zM812.09 166.96 a3.5 3.5 0 1 0 7 0 a3.5 3.5 0 1 0 -7 0zM781.77 149.46 a3.5 3.5 0 1 0 7 0 a3.5 3.5 0 1 0 -7 0zM812.09 306.96 a3.5 3.5 0 1 0 7 0 a3.5 3.5 0 1 0 -7 0zM842.4 324.46 a3.5 3.5 0 1 0 7 0 a3.5 3.5 0 1 0 -7 0zM842.4 359.46 a3.5 3.5 0 1 0 7 0 a3.5 3.5 0 1 0 -7 0zM812.09 376.96 a3.5 3.5 0 1 0 7 0 a3.5 3.5 0 1 0 -7 0zM812.09 411.96 a3.5 3.5 0 1 0 7 0 a3.5 3.5 0 1 0 -7 0zM842.4 429.46 a3.5 3.5 0 1 0 7 0 a3.5 3.5 0 1 0 -7 0zM842.4 464.46 a3.5 3.5 0 1 0 7 0 a3.5 3.5 0 1 0 -7 0zM812.09 481.96 a3.5 3.5 0 1 0 7 0 a3.5 3.5 0 1 0 -7 0zM812.09 516.96 a3.5 3.5 0 1 0 7 0 a3.5 3.5 0 1 0 -7 0zM842.4 534.46 a3.5 3.5 0 1 0 7 0 a3.5 3.5 0 1 0 -7 0zM842.4 569.46 a3.5 3.5 0 1 0 7 0 a3.5 3.5 0 1 0 -7 0zM812.09 586.96 a3.5 3.5 0 1 0 7 0 a3.5 3.5 0 1 0 -7 0zM872.71 96.96 a3.5 3.5 0 1 0 7 0 a3.5 3.5 0 1 0 -7 0zM903.02 114.46 a3.5 3.5 0 1 0 7 0 a3.5 3.5 0 1 0 -7 0zM903.02 149.46 a3.5 3.5 0 1 0 7 0 a3.5 3.5 0 1 0 -7 0zM872.71 166.96 a3.5 3.5 0 1 0 7 0 a3.5 3.5 0 1 0 -7 0zM872.71 516.96 a3.5 3.5 0 1 0 7 0 a3.5 3.5 0 1 0 -7 0zM903.02 534.46 a3.5 3.5 0 1 0 7 0 a3.5 3.5 0 1 0 -7 0zM903.02 569.46 a3.5 3.5 0 1 0 7 0 a3.5 3.5 0 1 0 -7 0zM872.71 586.96 a3.5 3.5 0 1 0 7 0 a3.5 3.5 0 1 0 -7 0zM963.64 149.46 a3.5 3.5 0 1 0 7 0 a3.5 3.5 0 1 0 -7 0zM993.96 166.96 a3.5 3.5 0 1 0 7 0 a3.5 3.5 0 1 0 -7 0zM993.96 201.96 a3.5 3.5 0 1 0 7 0 a3.5 3.5 0 1 0 -7 0zM963.64 219.46 a3.5 3.5 0 1 0 7 0 a3.5 3.5 0 1 0 -7 0zM933.33 201.96 a3.5 3.5 0 1 0 7 0 a3.5 3.5 0 1 0 -7 0zM933.33 166.96 a3.5 3.5 0 1 0 7 0 a3.5 3.5 0 1 0 -7 0zM963.64 254.46 a3.5 3.5 0 1 0 7 0 a3.5 3.5 0 1 0 -7 0zM933.33 271.96 a3.5 3.5 0 1 0 7 0 a3.5 3.5 0 1 0 -7 0zM903.02 254.46 a3.5 3.5 0 1 0 7 0 a3.5 3.5 0 1 0 -7 0zM903.02 219.46 a3.5 3.5 0 1 0 7 0 a3.5 3.5 0 1 0 -7 0zM963.64 359.46 a3.5 3.5 0 1 0 7 0 a3.5 3.5 0 1 0 -7 0zM993.96 376.96 a3.5 3.5 0 1 0 7 0 a3.5 3.5 0 1 0 -7 0zM993.96 411.96 a3.5 3.5 0 1 0 7 0 a3.5 3.5 0 1 0 -7 0zM963.64 429.46 a3.5 3.5 0 1 0 7 0 a3.5 3.5 0 1 0 -7 0zM933.33 411.96 a3.5 3.5 0 1 0 7 0 a3.5 3.5 0 1 0 -7 0zM933.33 376.96 a3.5 3.5 0 1 0 7 0 a3.5 3.5 0 1 0 -7 0zM963.64 464.46 a3.5 3.5 0 1 0 7 0 a3.5 3.5 0 1 0 -7 0zM993.96 481.96 a3.5 3.5 0 1 0 7 0 a3.5 3.5 0 1 0 -7 0zM993.96 516.96 a3.5 3.5 0 1 0 7 0 a3.5 3.5 0 1 0 -7 0zM963.64 534.46 a3.5 3.5 0 1 0 7 0 a3.5 3.5 0 1 0 -7 0zM933.33 516.96 a3.5 3.5 0 1 0 7 0 a3.5 3.5 0 1 0 -7 0zM933.33 481.96 a3.5 3.5 0 1 0 7 0 a3.5 3.5 0 1 0 -7 0zM993.96 -8.04 a3.5 3.5 0 1 0 7 0 a3.5 3.5 0 1 0 -7 0zM1024.27 9.46 a3.5 3.5 0 1 0 7 0 a3.5 3.5 0 1 0 -7 0zM1024.27 44.46 a3.5 3.5 0 1 0 7 0 a3.5 3.5 0 1 0 -7 0zM993.96 61.96 a3.5 3.5 0 1 0 7 0 a3.5 3.5 0 1 0 -7 0zM963.64 44.46 a3.5 3.5 0 1 0 7 0 a3.5 3.5 0 1 0 -7 0zM963.64 9.46 a3.5 3.5 0 1 0 7 0 a3.5 3.5 0 1 0 -7 0zM993.96 96.96 a3.5 3.5 0 1 0 7 0 a3.5 3.5 0 1 0 -7 0zM1024.27 114.46 a3.5 3.5 0 1 0 7 0 a3.5 3.5 0 1 0 -7 0zM1024.27 149.46 a3.5 3.5 0 1 0 7 0 a3.5 3.5 0 1 0 -7 0zM963.64 114.46 a3.5 3.5 0 1 0 7 0 a3.5 3.5 0 1 0 -7 0zM1024.27 254.46 a3.5 3.5 0 1 0 7 0 a3.5 3.5 0 1 0 -7 0zM1054.58 271.96 a3.5 3.5 0 1 0 7 0 a3.5 3.5 0 1 0 -7 0zM1054.58 306.96 a3.5 3.5 0 1 0 7 0 a3.5 3.5 0 1 0 -7 0zM1024.27 324.46 a3.5 3.5 0 1 0 7 0 a3.5 3.5 0 1 0 -7 0zM993.96 306.96 a3.5 3.5 0 1 0 7 0 a3.5 3.5 0 1 0 -7 0zM993.96 271.96 a3.5 3.5 0 1 0 7 0 a3.5 3.5 0 1 0 -7 0zM1024.27 359.46 a3.5 3.5 0 1 0 7 0 a3.5 3.5 0 1 0 -7 0zM963.64 324.46 a3.5 3.5 0 1 0 7 0 a3.5 3.5 0 1 0 -7 0zM1024.27 464.46 a3.5 3.5 0 1 0 7 0 a3.5 3.5 0 1 0 -7 0zM1054.58 481.96 a3.5 3.5 0 1 0 7 0 a3.5 3.5 0 1 0 -7 0zM1054.58 516.96 a3.5 3.5 0 1 0 7 0 a3.5 3.5 0 1 0 -7 0zM1024.27 534.46 a3.5 3.5 0 1 0 7 0 a3.5 3.5 0 1 0 -7 0zM1084.89 44.46 a3.5 3.5 0 1 0 7 0 a3.5 3.5 0 1 0 -7 0zM1115.2 61.96 a3.5 3.5 0 1 0 7 0 a3.5 3.5 0 1 0 -7 0zM1115.2 96.96 a3.5 3.5 0 1 0 7 0 a3.5 3.5 0 1 0 -7 0zM1084.89 114.46 a3.5 3.5 0 1 0 7 0 a3.5 3.5 0 1 0 -7 0zM1054.58 96.96 a3.5 3.5 0 1 0 7 0 a3.5 3.5 0 1 0 -7 0zM1054.58 61.96 a3.5 3.5 0 1 0 7 0 a3.5 3.5 0 1 0 -7 0zM1054.58 201.96 a3.5 3.5 0 1 0 7 0 a3.5 3.5 0 1 0 -7 0zM1084.89 219.46 a3.5 3.5 0 1 0 7 0 a3.5 3.5 0 1 0 -7 0zM1084.89 254.46 a3.5 3.5 0 1 0 7 0 a3.5 3.5 0 1 0 -7 0zM1024.27 219.46 a3.5 3.5 0 1 0 7 0 a3.5 3.5 0 1 0 -7 0zM1115.2 271.96 a3.5 3.5 0 1 0 7 0 a3.5 3.5 0 1 0 -7 0zM1115.2 306.96 a3.5 3.5 0 1 0 7 0 a3.5 3.5 0 1 0 -7 0zM1084.89 324.46 a3.5 3.5 0 1 0 7 0 a3.5 3.5 0 1 0 -7 0zM1084.89 359.46 a3.5 3.5 0 1 0 7 0 a3.5 3.5 0 1 0 -7 0zM1054.58 376.96 a3.5 3.5 0 1 0 7 0 a3.5 3.5 0 1 0 -7 0zM1115.2 -8.04 a3.5 3.5 0 1 0 7 0 a3.5 3.5 0 1 0 -7 0zM1145.51 9.46 a3.5 3.5 0 1 0 7 0 a3.5 3.5 0 1 0 -7 0zM1145.51 44.46 a3.5 3.5 0 1 0 7 0 a3.5 3.5 0 1 0 -7 0zM1084.89 9.46 a3.5 3.5 0 1 0 7 0 a3.5 3.5 0 1 0 -7 0zM1145.51 114.46 a3.5 3.5 0 1 0 7 0 a3.5 3.5 0 1 0 -7 0zM1145.51 149.46 a3.5 3.5 0 1 0 7 0 a3.5 3.5 0 1 0 -7 0zM1115.2 166.96 a3.5 3.5 0 1 0 7 0 a3.5 3.5 0 1 0 -7 0zM1084.89 149.46 a3.5 3.5 0 1 0 7 0 a3.5 3.5 0 1 0 -7 0zM1145.51 359.46 a3.5 3.5 0 1 0 7 0 a3.5 3.5 0 1 0 -7 0zM1175.83 376.96 a3.5 3.5 0 1 0 7 0 a3.5 3.5 0 1 0 -7 0zM1175.83 411.96 a3.5 3.5 0 1 0 7 0 a3.5 3.5 0 1 0 -7 0zM1145.51 429.46 a3.5 3.5 0 1 0 7 0 a3.5 3.5 0 1 0 -7 0zM1115.2 411.96 a3.5 3.5 0 1 0 7 0 a3.5 3.5 0 1 0 -7 0zM1115.2 376.96 a3.5 3.5 0 1 0 7 0 a3.5 3.5 0 1 0 -7 0zM1145.51 464.46 a3.5 3.5 0 1 0 7 0 a3.5 3.5 0 1 0 -7 0zM1175.83 481.96 a3.5 3.5 0 1 0 7 0 a3.5 3.5 0 1 0 -7 0zM1175.83 516.96 a3.5 3.5 0 1 0 7 0 a3.5 3.5 0 1 0 -7 0zM1145.51 534.46 a3.5 3.5 0 1 0 7 0 a3.5 3.5 0 1 0 -7 0zM1115.2 516.96 a3.5 3.5 0 1 0 7 0 a3.5 3.5 0 1 0 -7 0zM1115.2 481.96 a3.5 3.5 0 1 0 7 0 a3.5 3.5 0 1 0 -7 0zM1206.14 149.46 a3.5 3.5 0 1 0 7 0 a3.5 3.5 0 1 0 -7 0zM1236.45 166.96 a3.5 3.5 0 1 0 7 0 a3.5 3.5 0 1 0 -7 0zM1236.45 201.96 a3.5 3.5 0 1 0 7 0 a3.5 3.5 0 1 0 -7 0zM1206.14 219.46 a3.5 3.5 0 1 0 7 0 a3.5 3.5 0 1 0 -7 0zM1175.83 201.96 a3.5 3.5 0 1 0 7 0 a3.5 3.5 0 1 0 -7 0zM1175.83 166.96 a3.5 3.5 0 1 0 7 0 a3.5 3.5 0 1 0 -7 0zM1206.14 254.46 a3.5 3.5 0 1 0 7 0 a3.5 3.5 0 1 0 -7 0zM1175.83 271.96 a3.5 3.5 0 1 0 7 0 a3.5 3.5 0 1 0 -7 0zM1145.51 254.46 a3.5 3.5 0 1 0 7 0 a3.5 3.5 0 1 0 -7 0zM1145.51 219.46 a3.5 3.5 0 1 0 7 0 a3.5 3.5 0 1 0 -7 0zM1175.83 306.96 a3.5 3.5 0 1 0 7 0 a3.5 3.5 0 1 0 -7 0zM1206.14 324.46 a3.5 3.5 0 1 0 7 0 a3.5 3.5 0 1 0 -7 0zM1206.14 359.46 a3.5 3.5 0 1 0 7 0 a3.5 3.5 0 1 0 -7 0zM1145.51 324.46 a3.5 3.5 0 1 0 7 0 a3.5 3.5 0 1 0 -7 0zM1236.45 -8.04 a3.5 3.5 0 1 0 7 0 a3.5 3.5 0 1 0 -7 0zM1266.76 9.46 a3.5 3.5 0 1 0 7 0 a3.5 3.5 0 1 0 -7 0zM1266.76 44.46 a3.5 3.5 0 1 0 7 0 a3.5 3.5 0 1 0 -7 0zM1236.45 61.96 a3.5 3.5 0 1 0 7 0 a3.5 3.5 0 1 0 -7 0zM1206.14 44.46 a3.5 3.5 0 1 0 7 0 a3.5 3.5 0 1 0 -7 0zM1206.14 9.46 a3.5 3.5 0 1 0 7 0 a3.5 3.5 0 1 0 -7 0zM1297.07 61.96 a3.5 3.5 0 1 0 7 0 a3.5 3.5 0 1 0 -7 0zM1297.07 96.96 a3.5 3.5 0 1 0 7 0 a3.5 3.5 0 1 0 -7 0zM1266.76 114.46 a3.5 3.5 0 1 0 7 0 a3.5 3.5 0 1 0 -7 0zM1236.45 96.96 a3.5 3.5 0 1 0 7 0 a3.5 3.5 0 1 0 -7 0zM1266.76 219.46 a3.5 3.5 0 1 0 7 0 a3.5 3.5 0 1 0 -7 0zM1266.76 254.46 a3.5 3.5 0 1 0 7 0 a3.5 3.5 0 1 0 -7 0zM1236.45 271.96 a3.5 3.5 0 1 0 7 0 a3.5 3.5 0 1 0 -7 0zM1236.45 306.96 a3.5 3.5 0 1 0 7 0 a3.5 3.5 0 1 0 -7 0zM1266.76 324.46 a3.5 3.5 0 1 0 7 0 a3.5 3.5 0 1 0 -7 0zM1266.76 359.46 a3.5 3.5 0 1 0 7 0 a3.5 3.5 0 1 0 -7 0zM1236.45 376.96 a3.5 3.5 0 1 0 7 0 a3.5 3.5 0 1 0 -7 0zM1327.39 254.46 a3.5 3.5 0 1 0 7 0 a3.5 3.5 0 1 0 -7 0zM1357.7 271.96 a3.5 3.5 0 1 0 7 0 a3.5 3.5 0 1 0 -7 0zM1357.7 306.96 a3.5 3.5 0 1 0 7 0 a3.5 3.5 0 1 0 -7 0zM1327.39 324.46 a3.5 3.5 0 1 0 7 0 a3.5 3.5 0 1 0 -7 0zM1297.07 306.96 a3.5 3.5 0 1 0 7 0 a3.5 3.5 0 1 0 -7 0zM1297.07 271.96 a3.5 3.5 0 1 0 7 0 a3.5 3.5 0 1 0 -7 0zM1327.39 359.46 a3.5 3.5 0 1 0 7 0 a3.5 3.5 0 1 0 -7 0zM1297.07 376.96 a3.5 3.5 0 1 0 7 0 a3.5 3.5 0 1 0 -7 0zM1297.07 411.96 a3.5 3.5 0 1 0 7 0 a3.5 3.5 0 1 0 -7 0zM1327.39 429.46 a3.5 3.5 0 1 0 7 0 a3.5 3.5 0 1 0 -7 0zM1327.39 464.46 a3.5 3.5 0 1 0 7 0 a3.5 3.5 0 1 0 -7 0zM1297.07 481.96 a3.5 3.5 0 1 0 7 0 a3.5 3.5 0 1 0 -7 0zM1266.76 464.46 a3.5 3.5 0 1 0 7 0 a3.5 3.5 0 1 0 -7 0zM1266.76 429.46 a3.5 3.5 0 1 0 7 0 a3.5 3.5 0 1 0 -7 0zM1388.01 149.46 a3.5 3.5 0 1 0 7 0 a3.5 3.5 0 1 0 -7 0zM1418.32 166.96 a3.5 3.5 0 1 0 7 0 a3.5 3.5 0 1 0 -7 0zM1418.32 201.96 a3.5 3.5 0 1 0 7 0 a3.5 3.5 0 1 0 -7 0zM1388.01 219.46 a3.5 3.5 0 1 0 7 0 a3.5 3.5 0 1 0 -7 0zM1357.7 201.96 a3.5 3.5 0 1 0 7 0 a3.5 3.5 0 1 0 -7 0zM1357.7 166.96 a3.5 3.5 0 1 0 7 0 a3.5 3.5 0 1 0 -7 0zM1388.01 254.46 a3.5 3.5 0 1 0 7 0 a3.5 3.5 0 1 0 -7 0zM1327.39 219.46 a3.5 3.5 0 1 0 7 0 a3.5 3.5 0 1 0 -7 0zM1388.01 359.46 a3.5 3.5 0 1 0 7 0 a3.5 3.5 0 1 0 -7 0zM1418.32 376.96 a3.5 3.5 0 1 0 7 0 a3.5 3.5 0 1 0 -7 0zM1418.32 411.96 a3.5 3.5 0 1 0 7 0 a3.5 3.5 0 1 0 -7 0zM1388.01 429.46 a3.5 3.5 0 1 0 7 0 a3.5 3.5 0 1 0 -7 0zM1357.7 411.96 a3.5 3.5 0 1 0 7 0 a3.5 3.5 0 1 0 -7 0zM1357.7 376.96 a3.5 3.5 0 1 0 7 0 a3.5 3.5 0 1 0 -7 0zM1357.7 516.96 a3.5 3.5 0 1 0 7 0 a3.5 3.5 0 1 0 -7 0zM1388.01 534.46 a3.5 3.5 0 1 0 7 0 a3.5 3.5 0 1 0 -7 0zM1388.01 569.46 a3.5 3.5 0 1 0 7 0 a3.5 3.5 0 1 0 -7 0zM1357.7 586.96 a3.5 3.5 0 1 0 7 0 a3.5 3.5 0 1 0 -7 0zM1327.39 569.46 a3.5 3.5 0 1 0 7 0 a3.5 3.5 0 1 0 -7 0zM1327.39 534.46 a3.5 3.5 0 1 0 7 0 a3.5 3.5 0 1 0 -7 0zM1418.32 586.96 a3.5 3.5 0 1 0 7 0 a3.5 3.5 0 1 0 -7 0zM1418.32 621.96 a3.5 3.5 0 1 0 7 0 a3.5 3.5 0 1 0 -7 0zM1388.01 639.46 a3.5 3.5 0 1 0 7 0 a3.5 3.5 0 1 0 -7 0zM1357.7 621.96 a3.5 3.5 0 1 0 7 0 a3.5 3.5 0 1 0 -7 0zM1418.32 -8.04 a3.5 3.5 0 1 0 7 0 a3.5 3.5 0 1 0 -7 0zM1448.63 9.46 a3.5 3.5 0 1 0 7 0 a3.5 3.5 0 1 0 -7 0zM1448.63 44.46 a3.5 3.5 0 1 0 7 0 a3.5 3.5 0 1 0 -7 0zM1418.32 61.96 a3.5 3.5 0 1 0 7 0 a3.5 3.5 0 1 0 -7 0zM1388.01 44.46 a3.5 3.5 0 1 0 7 0 a3.5 3.5 0 1 0 -7 0zM1388.01 9.46 a3.5 3.5 0 1 0 7 0 a3.5 3.5 0 1 0 -7 0zM1448.63 254.46 a3.5 3.5 0 1 0 7 0 a3.5 3.5 0 1 0 -7 0zM1478.94 271.96 a3.5 3.5 0 1 0 7 0 a3.5 3.5 0 1 0 -7 0zM1478.94 306.96 a3.5 3.5 0 1 0 7 0 a3.5 3.5 0 1 0 -7 0zM1448.63 324.46 a3.5 3.5 0 1 0 7 0 a3.5 3.5 0 1 0 -7 0zM1418.32 306.96 a3.5 3.5 0 1 0 7 0 a3.5 3.5 0 1 0 -7 0zM1418.32 271.96 a3.5 3.5 0 1 0 7 0 a3.5 3.5 0 1 0 -7 0zM1448.63 464.46 a3.5 3.5 0 1 0 7 0 a3.5 3.5 0 1 0 -7 0zM1478.94 481.96 a3.5 3.5 0 1 0 7 0 a3.5 3.5 0 1 0 -7 0zM1478.94 516.96 a3.5 3.5 0 1 0 7 0 a3.5 3.5 0 1 0 -7 0zM1448.63 534.46 a3.5 3.5 0 1 0 7 0 a3.5 3.5 0 1 0 -7 0zM1418.32 516.96 a3.5 3.5 0 1 0 7 0 a3.5 3.5 0 1 0 -7 0zM1418.32 481.96 a3.5 3.5 0 1 0 7 0 a3.5 3.5 0 1 0 -7 0z" fill="rgba(143, 184, 225, 0.17)"></path><path d="M232.58 180.16L340.83 242.66L340.83 367.66L232.58 430.16L124.32 367.66L124.32 242.66zM124.32 367.66L232.58 430.16L232.58 555.16L124.32 617.66L16.06 555.16L16.06 430.16zM232.58 555.16L340.83 617.66L340.83 742.66L232.58 805.16L124.32 742.66L124.32 617.66zM340.83 367.66L449.09 430.16L449.09 555.16L340.83 617.66L232.58 555.16L232.58 430.16zM665.6 180.16L773.86 242.66L773.86 367.66L665.6 430.16L557.35 367.66L557.35 242.66zM882.11 555.16L990.37 617.66L990.37 742.66L882.11 805.16L773.86 742.66L773.86 617.66zM990.37 367.66L1098.63 430.16L1098.63 555.16L990.37 617.66L882.11 555.16L882.11 430.16zM1098.63 555.16L1206.88 617.66L1206.88 742.66L1098.63 805.16L990.37 742.66L990.37 617.66zM1206.88 -7.34L1315.14 55.16L1315.14 180.16L1206.88 242.66L1098.63 180.16L1098.63 55.16zM1423.39 367.66L1531.65 430.16L1531.65 555.16L1423.39 617.66L1315.14 555.16L1315.14 430.16zM1531.65 555.16L1639.91 617.66L1639.91 742.66L1531.65 805.16L1423.39 742.66L1423.39 617.66z" stroke="rgba(10, 71, 133, 0.1)" stroke-width="2"></path></g><defs><mask id="SvgjsMask1003"><rect width="1440" height="560" fill="#ffffff"></rect></mask></defs></svg>